# xmcd
# 
# Track frame offsets:
#     182
#     22625
#     38297
#     58440
#     84647
#     105832
#     131365
#     156607
#     180370
#     210020
#     223095
#     237162
#     269722
#     285502
#     307007
# 
# Disc length: 4613
# 
# Revision: 59
# Processed by: cddbd v1.5.2PL0 Copyright (c) Steve Scherf et al.
# Submitted via: fre:ac v1.0.31
# 
DISCID=c412030f
DTITLE=Phil Collins - Serious Hits...Live
DYEAR=1990
DGENRE=Pop/Rock
TTITLE0=Something Happened on the Way to Heaven (Live)
TTITLE1=Against All Odds (Take a Look at Me Now) (Live)
TTITLE2=Who Said I Would (Live)
TTITLE3=One More Night (Live)
TTITLE4=Don't Lose My Number (Live)
TTITLE5=Do You Remember (Live)
TTITLE6=Another Day in Paradise (Live)
TTITLE7=Separate Lives (Live)
TTITLE8=In the Air Tonight (Live)
TTITLE9=You Can't Hurry Love (Live)
TTITLE10=Two Hearts (Live)
TTITLE11=Sussudio (Live)
TTITLE12=A Groovy Kind of Love (Live)
TTITLE13=Easy Lover (Live)
TTITLE14=Take Me Home (Live)
EXTD=
EXTT0=
EXTT1=
EXTT2=
EXTT3=
EXTT4=
EXTT5=
EXTT6=
EXTT7=
EXTT8=
EXTT9=
EXTT10=
EXTT11=
EXTT12=
EXTT13=
EXTT14=
PLAYORDER=
